#!OML:ASF H:\Terrain\Patient Classification 1\Animal2\Wednesday\Animal2.ASF
:FULLY-SPECIFIED
:DEGREES
3338
root 10.8663 15.1921 -7.99073 19.9936 4.64936 -14.1956
lowerback 32.7461 2.45701 4.21809
upperback 12.1496 3.9047 -4.87816
thorax -2.95294 2.17105 -8.60361
lowerneck -6.91738 0.691616 12.063
upperneck -10.8857 0.142793 -3.3372
head -2.35074 -0.315253 -3.24441
rclavicle -1.27222e-014 4.6118e-014
rhumerus 47.3713 28.0433 -2.47442
rradius 127.597
rwrist -17.1323
rhand 0.690214 27.6455
rfingers 7.12502
rthumb 26.2513 -0.558544
lclavicle -1.27222e-014 4.6118e-014
lhumerus -298.609 11.6539 376.533
lradius 28.239
lwrist 14.1539
lhand -24.7986 30.9961
lfingers 7.12502
lthumb 1.70612 60.969
rfemur -51.258 0.977219 -3.04633
rtibia 29.6878
rfoot -0.325622 -5.66148
rtoes 4.67428
lfemur -69.8372 12.9564 6.36349
ltibia 73.3158
lfoot -20.4165 -5.04891
ltoes -33.4438
3339
root 10.9156 15.2126 -8.06609 19.8235 4.55422 -14.1849
lowerback 32.6667 2.40087 3.75758
upperback 12.0576 3.68489 -5.08325
thorax -3.07767 2.04924 -8.50942
lowerneck -7.04598 0.69947 12.0818
upperneck -10.3515 0.137759 -3.18297
head -2.14565 -0.305011 -3.1872
rclavicle -3.65764e-014 -1.59028e-015
rhumerus 45.9758 31.159 -2.71358
rradius 127.405
rwrist -17.4503
rhand 2.12458 27.7103
rfingers 7.12502
rthumb 27.6237 -0.281829
lclavicle -3.65764e-014 -1.59028e-015
lhumerus -296.604 11.0262 375.608
lradius 29.497
lwrist 15.6634
lhand -24.2426 31.5985
lfingers 7.12502
lthumb 2.24304 61.5665
rfemur -51.1798 0.201205 -2.11786
rtibia 31.544
rfoot -1.67717 -5.15123
rtoes 2.32979
lfemur -69.8199 12.8384 6.1363
ltibia 73.1832
lfoot -20.1041 -5.36408
ltoes -31.7725
3340
root 10.9559 15.225 -8.14409 19.5152 4.56997 -14.2409
lowerback 32.7597 2.34254 3.39098
upperback 11.9686 3.49627 -5.21949
thorax -3.25396 1.94237 -8.40701
lowerneck -6.88207 0.700721 12.109
upperneck -10.0994 0.162602 -3.07362
head -2.08679 -0.286515 -3.1522
rclavicle 1.01778e-013 -4.69132e-014
rhumerus 44.1859 33.5417 -3.01302
rradius 127.167
rwrist -19.0595
rhand 2.9816 27.2629
rfingers 7.12502
rthumb 28.443 -0.595267
lclavicle 1.01778e-013 -4.69132e-014
lhumerus -294.397 10.3902 375.724
lradius 30.7128
lwrist 16.5172
lhand -23.8422 31.4507
lfingers 7.12502
lthumb 2.62978 61.4143
rfemur -50.9727 -0.419289 -1.18784
rtibia 33.4831
rfoot -2.87772 -5.3592
rtoes -0.83591
lfemur -69.7321 12.7123 6.02759
ltibia 73.012
lfoot -19.7556 -5.4136
ltoes -30.7233
3341
root 10.9899 15.232 -8.22022 19.0504 4.65804 -14.611
lowerback 32.7853 2.22718 3.24655
upperback 12.0424 3.31289 -5.23782
thorax -3.21915 1.85218 -8.28996
lowerneck -6.65856 0.764615 12.1121
upperneck -10.0768 0.273324 -3.13744
head -2.10926 -0.228056 -3.17556
rclavicle 3.18055e-014 -2.8625e-014
rhumerus 42.6412 36.418 -3.81312
rradius 125.901
rwrist -19.9104
rhand 3.73272 27.1813
rfingers 7.12502
rthumb 29.1605 -0.55471
lclavicle 3.18055e-014 -2.8625e-014
lhumerus -292.356 9.83975 376.178
lradius 32.0001
lwrist 16.9175
lhand -23.9586 30.6328
lfingers 7.12502
lthumb 2.51737 60.5977
rfemur -50.6569 -0.648927 -0.112845
rtibia 35.448
rfoot -3.97111 -6.37148
rtoes -4.19683
lfemur -69.591 12.8506 6.18545
ltibia 72.8379
lfoot -19.4149 -5.58461
ltoes -30.7011
3342
root 11.0258 15.2389 -8.28612 18.7089 4.57868 -14.805
lowerback 32.4718 2.17222 2.89667
upperback 12.2115 3.14256 -5.30241
thorax -2.95927 1.77297 -8.09978
lowerneck -6.58751 0.842223 12.0102
upperneck -10.0003 0.38247 -3.2607
head -2.08559 -0.164459 -3.19835
rclavicle 2.22639e-014 -4.92986e-014
rhumerus 40.5489 37.7266 -4.51124
rradius 125.123
rwrist -21.7155
rhand 4.60053 27.0586
rfingers 7.12502
rthumb 29.9889 -0.530712
lclavicle 2.22639e-014 -4.92986e-014
lhumerus -290.541 9.25887 376.129
lradius 33.502
lwrist 18.0117
lhand -23.9709 31.166
lfingers 7.12502
lthumb 2.5055 61.131
rfemur -50.4049 -0.879408 0.66898
rtibia 37.3718
rfoot -5.12984 -7.42887
rtoes -4.02903
lfemur -69.4562 12.9998 6.12702
ltibia 72.7076
lfoot -19.1791 -5.79497
ltoes -30.5173
3343
root 11.0619 15.2478 -8.34929 18.4261 4.50699 -14.8686
lowerback 32.1973 2.14468 2.61689
upperback 12.3017 3.02469 -5.41617
thorax -2.78487 1.71807 -8.0216
lowerneck -6.68897 0.843097 11.943
upperneck -9.67697 0.359195 -3.40753
head -1.95954 -0.161989 -3.23346
rclavicle 1.59028e-015 -3.4191e-014
rhumerus 38.2931 39.4267 -5.62182
rradius 123.64
rwrist -23.119
rhand 4.77399 26.8645
rfingers 7.12502
rthumb 30.1544 -0.694725
lclavicle 1.59028e-015 -3.4191e-014
lhumerus -288.619 8.38054 376.108
lradius 35.0923
lwrist 19.7466
lhand -24.1511 31.8014
lfingers 7.12502
lthumb 2.33142 61.7684
rfemur -50.0738 -1.32351 1.37903
rtibia 39.212
rfoot -6.49604 -8.4484
rtoes -1.62075
lfemur -69.3128 12.9082 6.03809
ltibia 72.5987
lfoot -19.0662 -5.75537
ltoes -30.5039
3344
root 11.0985 15.2555 -8.41547 18.0433 4.46565 -14.988
lowerback 32.1847 2.05269 2.56879
upperback 12.3077 2.88738 -5.58618
thorax -2.79182 1.65558 -8.13624
lowerneck -6.75235 0.771134 11.8201
upperneck -9.17818 0.255864 -3.36178
head -1.78789 -0.195869 -3.18983
rclavicle 9.38264e-014 -3.65764e-014
rhumerus 35.7914 41.9671 -7.67375
rradius 121.366
rwrist -23.8398
rhand 4.67652 26.4149
rfingers 7.12502
rthumb 30.0614 -1.16127
lclavicle 9.38264e-014 -3.65764e-014
lhumerus -286.786 7.3056 376.138
lradius 36.7307
lwrist 21.2637
lhand -24.1781 30.5968
lfingers 7.12502
lthumb 2.30539 60.5641
rfemur -49.5629 -1.77557 2.16149
rtibia 40.9525
rfoot -7.43481 -9.65165
rtoes -2.79301
lfemur -69.1189 12.857 5.98679
ltibia 72.4861
lfoot -18.8978 -5.84514
ltoes -30.5086
3345
root 11.1333 15.2632 -8.47721 17.5954 4.35871 -15.0926
lowerback 32.1297 2.0063 2.42477
upperback 12.3352 2.78245 -5.70979
thorax -2.7598 1.60539 -8.15638
lowerneck -6.62431 0.707328 11.6581
upperneck -8.79014 0.191858 -3.31346
head -1.68414 -0.211342 -3.13996
rclavicle -1.27222e-014 2.70347e-014
rhumerus 33.0987 45.0943 -10.6283
rradius 118.349
rwrist -23.8094
rhand 4.35228 25.5505
rfingers 7.12502
rthumb 29.752 -2.08139
lclavicle -1.27222e-014 2.70347e-014
lhumerus -284.987 5.86098 376.879
lradius 38.3115
lwrist 21.8489
lhand -23.5956 29.6541
lfingers 7.12502
lthumb 2.86794 59.6146
rfemur -48.8878 -2.05524 2.79532
rtibia 42.6243
rfoot -8.34793 -10.7646
rtoes -4.37599
lfemur -68.8553 13.0115 5.82737
ltibia 72.4008
lfoot -18.6298 -6.11124
ltoes -30.6449
3346
root 11.1609 15.2666 -8.53521 17.1973 4.16483 -15.161
lowerback 31.9122 2.06444 2.13677
upperback 12.3917 2.77185 -5.77236
thorax -2.62699 1.59716 -8.05451
lowerneck -6.59932 0.685041 11.5061
upperneck -8.50063 0.163916 -3.41273
head -1.59295 -0.210863 -3.14382
rclavicle 7.31528e-014 -4.77083e-014
rhumerus 30.1798 46.5583 -12.8096
rradius 115.975
rwrist -25.2937
rhand 2.92994 24.7036
rfingers 7.12502
rthumb 28.3936 -3.16281
lclavicle 7.31528e-014 -4.77083e-014
lhumerus -283.6 5.60602 374.767
lradius 40.5717
lwrist 26.0639
lhand -22.7639 30.0094
lfingers 7.12502
lthumb 3.67112 59.9575
rfemur -48.2736 -2.13986 3.25238
rtibia 44.2437
rfoot -9.57031 -11.599
rtoes -2.81877
lfemur -68.6115 13.2596 5.64448
ltibia 72.3618
lfoot -18.386 -6.31427
ltoes -31.2301
3347
root 11.1849 15.2623 -8.59293 16.7841 3.9938 -15.1409
lowerback 31.8179 2.05278 1.90967
upperback 12.4063 2.68558 -5.92393
thorax -2.59271 1.55377 -8.06429
lowerneck -6.71381 0.654743 11.3522
upperneck -8.118 0.107941 -3.51679
head -1.44914 -0.223123 -3.14827
rclavicle 1.74931e-014 7.15625e-015
rhumerus 27.1746 47.8684 -15.2952
rradius 113.155
rwrist -26.4578
rhand 0.460948 24.475
rfingers 7.12502
rthumb 26.0318 -3.76158
lclavicle 1.74931e-014 7.15625e-015
lhumerus -281.972 2.58375 378.266
lradius 41.8206
lwrist 24.1447
lhand -21.7926 29.3525
lfingers 7.12502
lthumb 4.60908 59.2823
rfemur -47.6217 -2.25698 3.57344
rtibia 45.8173
rfoot -10.6086 -12.1096
rtoes -1.19389
lfemur -68.3661 13.3419 5.45068
ltibia 72.3295
lfoot -18.143 -6.4982
ltoes -31.2063
